# Blender 4.3.2
# www.blender.org
mtllib gizmo_loc_z.mtl
o LocationGizmo.002
v -0.075189 0.000000 0.000016
v -0.075188 0.000000 1.723880
v -0.073744 0.014797 0.000016
v -0.073744 0.014797 1.723880
v -0.069466 0.029025 0.000016
v -0.069466 0.029025 1.723880
v -0.062517 0.042139 0.000016
v -0.062517 0.042139 1.723880
v -0.053167 0.053633 0.000016
v -0.053166 0.053633 1.723880
v -0.041773 0.063065 0.000016
v -0.041773 0.063065 1.723880
v -0.028774 0.070074 0.000016
v -0.028774 0.070074 1.723880
v -0.014668 0.074390 0.000016
v -0.014668 0.074391 1.723880
v -0.000000 0.075848 0.000016
v -0.000000 0.075848 1.723880
v 0.014668 0.074390 0.000016
v 0.014668 0.074391 1.723880
v 0.028774 0.070074 0.000016
v 0.028774 0.070074 1.723880
v 0.041773 0.063065 0.000016
v 0.041773 0.063065 1.723880
v 0.053166 0.053633 0.000016
v 0.053166 0.053633 1.723880
v 0.062517 0.042139 0.000016
v 0.062518 0.042139 1.723880
v 0.069466 0.029025 0.000016
v 0.069466 0.029025 1.723880
v 0.073744 0.014797 0.000016
v 0.073744 0.014797 1.723880
v 0.075188 0.000000 0.000016
v 0.075189 0.000000 1.723880
v 0.073744 -0.014798 0.000016
v 0.073744 -0.014797 1.723880
v 0.069466 -0.029026 0.000016
v 0.069466 -0.029026 1.723880
v 0.062517 -0.042139 0.000016
v 0.062518 -0.042139 1.723880
v 0.053166 -0.053633 0.000016
v 0.053166 -0.053633 1.723880
v 0.041773 -0.063066 0.000016
v 0.041773 -0.063066 1.723880
v 0.028774 -0.070074 0.000016
v 0.028774 -0.070074 1.723880
v 0.014668 -0.074391 0.000016
v 0.014668 -0.074391 1.723880
v -0.000000 -0.075849 0.000016
v -0.000000 -0.075849 1.723880
v -0.014668 -0.074391 0.000016
v -0.014668 -0.074391 1.723880
v -0.028774 -0.070074 0.000016
v -0.028774 -0.070074 1.723880
v -0.041773 -0.063066 0.000016
v -0.041773 -0.063066 1.723880
v -0.053167 -0.053633 0.000016
v -0.053166 -0.053633 1.723880
v -0.062517 -0.042139 0.000016
v -0.062517 -0.042139 1.723880
v -0.069466 -0.029026 0.000016
v -0.069466 -0.029026 1.723880
v -0.073744 -0.014797 0.000016
v -0.073744 -0.014797 1.723880
v -0.117011 0.000000 1.653302
v -0.000000 0.000000 1.920310
v -0.114763 0.023028 1.653302
v -0.114763 -0.023028 1.653302
v -0.108105 -0.045170 1.653302
v -0.097291 -0.065578 1.653302
v -0.082739 -0.083465 1.653302
v -0.065008 -0.098144 1.653302
v -0.044779 -0.109052 1.653302
v -0.022828 -0.115769 1.653302
v -0.000000 -0.118037 1.653302
v 0.022827 -0.115769 1.653302
v 0.044778 -0.109052 1.653302
v 0.065008 -0.098144 1.653302
v 0.082739 -0.083465 1.653302
v 0.097291 -0.065578 1.653302
v 0.108104 -0.045170 1.653302
v 0.114763 -0.023028 1.653302
v 0.117011 0.000000 1.653302
v 0.114763 0.023028 1.653302
v 0.108104 0.045171 1.653302
v 0.097291 0.065578 1.653302
v 0.082739 0.083465 1.653302
v 0.065008 0.098144 1.653302
v 0.044778 0.109052 1.653302
v 0.022828 0.115770 1.653302
v -0.000000 0.118037 1.653302
v -0.022828 0.115770 1.653302
v -0.044779 0.109052 1.653302
v -0.065008 0.098144 1.653302
v -0.082739 0.083465 1.653302
v -0.097291 0.065578 1.653302
v -0.108104 0.045171 1.653302
vn -0.7277 -0.0000 0.6859
vn -0.7140 0.1408 -0.6859
vn -0.7277 -0.0000 -0.6859
vn -0.7140 0.1408 0.6858
vn -0.6732 0.2765 -0.6858
vn -0.6732 0.2765 0.6858
vn -0.6068 0.4020 -0.6857
vn -0.6068 0.4020 0.6857
vn -0.5169 0.5125 -0.6857
vn -0.5169 0.5125 0.6857
vn -0.4068 0.6037 -0.6856
vn -0.4069 0.6036 0.6856
vn -0.2806 0.6717 -0.6856
vn -0.2807 0.6718 0.6855
vn -0.1432 0.7138 -0.6855
vn -0.1432 0.7138 0.6855
vn -0.0000 0.7281 -0.6855
vn -0.0000 0.7281 0.6855
vn 0.1432 0.7138 -0.6855
vn 0.1432 0.7138 0.6855
vn 0.2806 0.6717 -0.6856
vn 0.2807 0.6718 0.6855
vn 0.4068 0.6037 -0.6856
vn 0.4068 0.6037 0.6856
vn 0.5169 0.5125 -0.6857
vn 0.5169 0.5125 0.6857
vn 0.6068 0.4020 -0.6858
vn 0.6068 0.4020 0.6857
vn 0.6732 0.2765 -0.6858
vn 0.6732 0.2765 0.6858
vn 0.7140 0.1408 -0.6858
vn 0.7140 0.1408 0.6858
vn 0.7277 -0.0000 -0.6859
vn 0.7277 -0.0000 0.6859
vn 0.7140 -0.1408 -0.6859
vn 0.7140 -0.1408 0.6858
vn 0.6732 -0.2765 -0.6858
vn 0.6732 -0.2765 0.6858
vn 0.6068 -0.4020 -0.6857
vn 0.6067 -0.4020 0.6858
vn 0.5169 -0.5125 -0.6857
vn 0.5169 -0.5125 0.6857
vn 0.4068 -0.6037 -0.6856
vn 0.4069 -0.6037 0.6856
vn 0.2806 -0.6717 -0.6856
vn 0.2806 -0.6718 0.6856
vn 0.1432 -0.7138 -0.6855
vn 0.1432 -0.7138 0.6855
vn -0.0000 -0.7281 -0.6855
vn -0.0000 -0.7281 0.6855
vn -0.1432 -0.7138 -0.6855
vn -0.1432 -0.7138 0.6855
vn -0.2806 -0.6717 -0.6856
vn -0.2806 -0.6718 0.6856
vn -0.4068 -0.6037 -0.6856
vn -0.4068 -0.6037 0.6856
vn -0.5169 -0.5125 -0.6857
vn -0.5169 -0.5125 0.6857
vn -0.6067 -0.4020 -0.6858
vn -0.6067 -0.4020 0.6858
vn -0.6732 -0.2765 -0.6858
vn -0.6732 -0.2765 0.6858
vn -0.7140 -0.1408 -0.6859
vn -0.7140 -0.1408 0.6858
vn -0.8353 -0.1648 -0.5245
vn -0.0000 -0.0000 1.0000
vn -0.8513 -0.0000 -0.5246
vn -0.8353 0.1648 -0.5245
vn 0.8353 0.1648 -0.5245
vn 0.1676 -0.8358 -0.5229
vn -0.7876 -0.3236 -0.5243
vn -0.7099 -0.4705 -0.5241
vn -0.6048 -0.5999 -0.5237
vn -0.4761 -0.7067 -0.5234
vn -0.3284 -0.7864 -0.5231
vn -0.1676 -0.8357 -0.5229
vn -0.0000 -0.8524 -0.5229
vn 0.3284 -0.7864 -0.5231
vn 0.4761 -0.7067 -0.5234
vn 0.6048 -0.5999 -0.5237
vn 0.7099 -0.4705 -0.5240
vn 0.7876 -0.3236 -0.5244
vn 0.8353 -0.1648 -0.5245
vn 0.8513 -0.0000 -0.5246
vn 0.7876 0.3236 -0.5244
vn 0.7099 0.4705 -0.5241
vn 0.6048 0.5999 -0.5237
vn 0.4761 0.7067 -0.5234
vn 0.3284 0.7864 -0.5232
vn 0.1676 0.8357 -0.5229
vn -0.0000 0.8524 -0.5229
vn -0.1676 0.8358 -0.5229
vn -0.3284 0.7864 -0.5231
vn -0.4761 0.7067 -0.5234
vn -0.6048 0.5999 -0.5237
vn -0.7099 0.4705 -0.5240
vn -0.7876 0.3236 -0.5244
s 1
usemtl ZAxisMaterial.002
f 2//1 3//2 1//3
f 4//4 5//5 3//2
f 6//6 7//7 5//5
f 8//8 9//9 7//7
f 10//10 11//11 9//9
f 12//12 13//13 11//11
f 14//14 15//15 13//13
f 16//16 17//17 15//15
f 18//18 19//19 17//17
f 20//20 21//21 19//19
f 22//22 23//23 21//21
f 24//24 25//25 23//23
f 26//26 27//27 25//25
f 28//28 29//29 27//27
f 30//30 31//31 29//29
f 32//32 33//33 31//31
f 34//34 35//35 33//33
f 36//36 37//37 35//35
f 38//38 39//39 37//37
f 40//40 41//41 39//39
f 42//42 43//43 41//41
f 44//44 45//45 43//43
f 46//46 47//47 45//45
f 48//48 49//49 47//47
f 50//50 51//51 49//49
f 52//52 53//53 51//51
f 54//54 55//55 53//53
f 56//56 57//57 55//55
f 58//58 59//59 57//57
f 60//60 61//61 59//59
f 38//38 22//22 6//6
f 62//62 63//63 61//61
f 64//64 1//3 63//63
f 31//31 47//47 63//63
f 68//65 66//66 65//67
f 65//67 66//66 67//68
f 84//69 76//70 68//65
f 69//71 66//66 68//65
f 70//72 66//66 69//71
f 71//73 66//66 70//72
f 72//74 66//66 71//73
f 73//75 66//66 72//74
f 74//76 66//66 73//75
f 75//77 66//66 74//76
f 76//70 66//66 75//77
f 77//78 66//66 76//70
f 78//79 66//66 77//78
f 79//80 66//66 78//79
f 80//81 66//66 79//80
f 81//82 66//66 80//81
f 82//83 66//66 81//82
f 83//84 66//66 82//83
f 84//69 66//66 83//84
f 85//85 66//66 84//69
f 86//86 66//66 85//85
f 87//87 66//66 86//86
f 88//88 66//66 87//87
f 89//89 66//66 88//88
f 90//90 66//66 89//89
f 91//91 66//66 90//90
f 92//92 66//66 91//91
f 93//93 66//66 92//92
f 94//94 66//66 93//93
f 95//95 66//66 94//94
f 96//96 66//66 95//95
f 97//97 66//66 96//96
f 67//68 66//66 97//97
f 2//1 4//4 3//2
f 4//4 6//6 5//5
f 6//6 8//8 7//7
f 8//8 10//10 9//9
f 10//10 12//12 11//11
f 12//12 14//14 13//13
f 14//14 16//16 15//15
f 16//16 18//18 17//17
f 18//18 20//20 19//19
f 20//20 22//22 21//21
f 22//22 24//24 23//23
f 24//24 26//26 25//25
f 26//26 28//28 27//27
f 28//28 30//30 29//29
f 30//30 32//32 31//31
f 32//32 34//34 33//33
f 34//34 36//36 35//35
f 36//36 38//38 37//37
f 38//38 40//40 39//39
f 40//40 42//42 41//41
f 42//42 44//44 43//43
f 44//44 46//46 45//45
f 46//46 48//48 47//47
f 48//48 50//50 49//49
f 50//50 52//52 51//51
f 52//52 54//54 53//53
f 54//54 56//56 55//55
f 56//56 58//58 57//57
f 58//58 60//60 59//59
f 60//60 62//62 61//61
f 6//6 4//4 2//1
f 2//1 64//64 62//62
f 62//62 60//60 58//58
f 58//58 56//56 54//54
f 54//54 52//52 50//50
f 50//50 48//48 46//46
f 46//46 44//44 42//42
f 42//42 40//40 38//38
f 38//38 36//36 34//34
f 34//34 32//32 30//30
f 30//30 28//28 26//26
f 26//26 24//24 22//22
f 22//22 20//20 18//18
f 18//18 16//16 14//14
f 14//14 12//12 10//10
f 10//10 8//8 6//6
f 6//6 2//1 62//62
f 62//62 58//58 54//54
f 54//54 50//50 46//46
f 46//46 42//42 38//38
f 38//38 34//34 30//30
f 30//30 26//26 22//22
f 22//22 18//18 14//14
f 14//14 10//10 6//6
f 6//6 62//62 54//54
f 54//54 46//46 38//38
f 38//38 30//30 22//22
f 22//22 14//14 6//6
f 6//6 54//54 38//38
f 62//62 64//64 63//63
f 64//64 2//1 1//3
f 63//63 1//3 3//2
f 3//2 5//5 7//7
f 7//7 9//9 11//11
f 11//11 13//13 15//15
f 15//15 17//17 19//19
f 19//19 21//21 23//23
f 23//23 25//25 27//27
f 27//27 29//29 31//31
f 31//31 33//33 35//35
f 35//35 37//37 39//39
f 39//39 41//41 43//43
f 43//43 45//45 47//47
f 47//47 49//49 51//51
f 51//51 53//53 55//55
f 55//55 57//57 59//59
f 59//59 61//61 63//63
f 63//63 3//2 7//7
f 7//7 11//11 15//15
f 15//15 19//19 23//23
f 23//23 27//27 31//31
f 31//31 35//35 39//39
f 39//39 43//43 47//47
f 47//47 51//51 55//55
f 55//55 59//59 63//63
f 63//63 7//7 15//15
f 15//15 23//23 31//31
f 31//31 39//39 47//47
f 47//47 55//55 63//63
f 63//63 15//15 31//31
f 68//65 65//67 67//68
f 67//68 97//97 96//96
f 96//96 95//95 94//94
f 94//94 93//93 92//92
f 92//92 91//91 90//90
f 90//90 89//89 88//88
f 88//88 87//87 86//86
f 86//86 85//85 84//69
f 84//69 83//84 82//83
f 82//83 81//82 80//81
f 80//81 79//80 78//79
f 78//79 77//78 76//70
f 76//70 75//77 74//76
f 74//76 73//75 72//74
f 72//74 71//73 70//72
f 70//72 69//71 68//65
f 68//65 67//68 96//96
f 96//96 94//94 92//92
f 92//92 90//90 88//88
f 88//88 86//86 84//69
f 84//69 82//83 80//81
f 80//81 78//79 76//70
f 76//70 74//76 72//74
f 72//74 70//72 68//65
f 68//65 96//96 92//92
f 92//92 88//88 84//69
f 84//69 80//81 76//70
f 76//70 72//74 68//65
f 68//65 92//92 84//69
